<mxfile host="65bd71144e">
    <diagram id="0_6-5-6bxt9umy4chYQU" name="Page-1">
        <mxGraphModel dx="1358" dy="640" grid="1" gridSize="10" guides="1" tooltips="1" connect="1" arrows="1" fold="1" page="1" pageScale="1" pageWidth="1600" pageHeight="900" background="none" math="0" shadow="1">
            <root>
                <mxCell id="0"/>
                <mxCell id="1" parent="0"/>
                <mxCell id="103" value="" style="rounded=1;whiteSpace=wrap;html=1;shadow=0;glass=0;sketch=0;fontSize=8;strokeWidth=1;fillColor=none;dashed=1;strokeColor=#007FFF;perimeterSpacing=0;arcSize=5;" parent="1" vertex="1">
                    <mxGeometry x="280" y="520" width="145" height="90" as="geometry"/>
                </mxCell>
                <mxCell id="87" value="" style="rounded=1;whiteSpace=wrap;html=1;shadow=0;glass=0;sketch=0;fontSize=8;strokeWidth=1;fillColor=none;dashed=1;strokeColor=#007FFF;perimeterSpacing=0;arcSize=5;" parent="1" vertex="1">
                    <mxGeometry x="545" y="90" width="255" height="390" as="geometry"/>
                </mxCell>
                <mxCell id="57" style="edgeStyle=orthogonalEdgeStyle;html=1;entryX=0;entryY=0.5;entryDx=0;entryDy=0;fontSize=6;startArrow=classic;startFill=1;endArrow=classicThin;endFill=1;startSize=1;endSize=1;strokeWidth=1;elbow=vertical;" parent="1" source="2" target="49" edge="1">
                    <mxGeometry relative="1" as="geometry">
                        <Array as="points">
                            <mxPoint x="560" y="435"/>
                            <mxPoint x="560" y="183"/>
                        </Array>
                    </mxGeometry>
                </mxCell>
                <mxCell id="59" value="SPI" style="edgeLabel;html=1;align=center;verticalAlign=middle;resizable=0;points=[];fontSize=8;horizontal=0;" parent="57" vertex="1" connectable="0">
                    <mxGeometry x="0.0533" relative="1" as="geometry">
                        <mxPoint y="-53" as="offset"/>
                    </mxGeometry>
                </mxCell>
                <mxCell id="119" style="edgeStyle=orthogonalEdgeStyle;html=1;entryX=0.5;entryY=1;entryDx=0;entryDy=0;fontSize=6;startArrow=classic;startFill=1;endArrow=none;endFill=0;startSize=1;endSize=1;strokeWidth=1;elbow=vertical;exitX=1;exitY=0;exitDx=0;exitDy=0;" parent="1" source="41" target="118" edge="1">
                    <mxGeometry relative="1" as="geometry"/>
                </mxCell>
                <mxCell id="2" value="&lt;b&gt;&lt;font style=&quot;font-size: 15px&quot;&gt;MCU&lt;/font&gt;&lt;/b&gt;" style="rounded=1;whiteSpace=wrap;html=1;glass=0;sketch=0;shadow=0;" parent="1" vertex="1">
                    <mxGeometry x="315" y="360" width="220" height="150" as="geometry"/>
                </mxCell>
                <mxCell id="9" style="edgeStyle=none;html=1;" parent="1" source="8" target="2" edge="1">
                    <mxGeometry relative="1" as="geometry">
                        <Array as="points">
                            <mxPoint x="360" y="360"/>
                        </Array>
                    </mxGeometry>
                </mxCell>
                <mxCell id="8" value="3.3V 5V BUCK" style="rounded=0;whiteSpace=wrap;html=1;shadow=0;glass=0;sketch=0;direction=north;" parent="1" vertex="1">
                    <mxGeometry x="340" y="190" width="40" height="110" as="geometry"/>
                </mxCell>
                <mxCell id="10" value="" style="endArrow=classic;html=1;exitX=0.138;exitY=0.982;exitDx=0;exitDy=0;exitPerimeter=0;entryX=0.386;entryY=0;entryDx=0;entryDy=0;entryPerimeter=0;" parent="1" source="8" target="2" edge="1">
                    <mxGeometry relative="1" as="geometry">
                        <mxPoint x="400" y="310" as="sourcePoint"/>
                        <mxPoint x="500" y="310" as="targetPoint"/>
                        <Array as="points">
                            <mxPoint x="400" y="300"/>
                            <mxPoint x="400" y="340"/>
                        </Array>
                    </mxGeometry>
                </mxCell>
                <mxCell id="11" value="&lt;font style=&quot;font-size: 6px&quot;&gt;Sense&lt;/font&gt;" style="edgeLabel;resizable=0;html=1;align=center;verticalAlign=middle;shadow=0;glass=0;sketch=0;" parent="10" connectable="0" vertex="1">
                    <mxGeometry relative="1" as="geometry"/>
                </mxCell>
                <mxCell id="14" style="edgeStyle=none;html=1;fontSize=6;" parent="1" source="12" target="2" edge="1">
                    <mxGeometry relative="1" as="geometry"/>
                </mxCell>
                <mxCell id="12" value="ADC" style="text;html=1;strokeColor=none;fillColor=none;align=center;verticalAlign=middle;whiteSpace=wrap;rounded=0;shadow=0;glass=0;sketch=0;fontSize=6;" parent="1" vertex="1">
                    <mxGeometry x="370" y="360" width="60" height="30" as="geometry"/>
                </mxCell>
                <mxCell id="34" style="edgeStyle=orthogonalEdgeStyle;html=1;fontSize=4;startSize=1;endSize=1;strokeWidth=1;" parent="1" source="15" target="20" edge="1">
                    <mxGeometry relative="1" as="geometry"/>
                </mxCell>
                <mxCell id="35" style="edgeStyle=orthogonalEdgeStyle;html=1;fontSize=4;startSize=1;endSize=1;strokeWidth=1;" parent="1" source="15" target="19" edge="1">
                    <mxGeometry relative="1" as="geometry"/>
                </mxCell>
                <mxCell id="15" value="CAR BATTERY" style="rounded=0;whiteSpace=wrap;html=1;shadow=0;glass=0;sketch=0;fontSize=6;" parent="1" vertex="1">
                    <mxGeometry x="70" y="80" width="70" height="40" as="geometry"/>
                </mxCell>
                <mxCell id="19" value="&lt;div&gt;&lt;span style=&quot;font-size: 8px&quot;&gt;LM5050&lt;/span&gt;&lt;/div&gt;" style="triangle;whiteSpace=wrap;html=1;fontSize=6;rounded=0;shadow=0;glass=0;sketch=0;align=left;" parent="1" vertex="1">
                    <mxGeometry x="210" y="110" width="50" height="30" as="geometry"/>
                </mxCell>
                <mxCell id="27" style="html=1;entryX=0;entryY=0.5;entryDx=0;entryDy=0;fontSize=4;strokeWidth=1;endSize=1;startSize=1;" parent="1" source="20" target="25" edge="1">
                    <mxGeometry relative="1" as="geometry"/>
                </mxCell>
                <mxCell id="20" value="&lt;div&gt;&lt;span style=&quot;font-size: 8px&quot;&gt;LM5050&lt;/span&gt;&lt;/div&gt;" style="triangle;whiteSpace=wrap;html=1;fontSize=6;rounded=0;shadow=0;glass=0;sketch=0;align=left;" parent="1" vertex="1">
                    <mxGeometry x="210" y="60" width="50" height="30" as="geometry"/>
                </mxCell>
                <mxCell id="32" style="edgeStyle=orthogonalEdgeStyle;html=1;entryX=0;entryY=0.5;entryDx=0;entryDy=0;fontSize=4;startSize=1;endSize=1;strokeWidth=1;" parent="1" source="25" target="30" edge="1">
                    <mxGeometry relative="1" as="geometry"/>
                </mxCell>
                <mxCell id="25" value="&lt;font style=&quot;font-size: 4px&quot;&gt;N-MOS 100A&lt;/font&gt;" style="rounded=0;whiteSpace=wrap;html=1;shadow=0;glass=0;sketch=0;fontSize=8;strokeWidth=1;" parent="1" vertex="1">
                    <mxGeometry x="275" y="65" width="45" height="20" as="geometry"/>
                </mxCell>
                <mxCell id="33" style="edgeStyle=orthogonalEdgeStyle;html=1;entryX=0;entryY=0.5;entryDx=0;entryDy=0;fontSize=4;startSize=1;endSize=1;strokeWidth=1;" parent="1" source="28" target="30" edge="1">
                    <mxGeometry relative="1" as="geometry"/>
                </mxCell>
                <mxCell id="28" value="&lt;font style=&quot;font-size: 4px&quot;&gt;N-MOS 100A&lt;/font&gt;" style="rounded=0;whiteSpace=wrap;html=1;shadow=0;glass=0;sketch=0;fontSize=8;strokeWidth=1;" parent="1" vertex="1">
                    <mxGeometry x="275" y="115" width="45" height="20" as="geometry"/>
                </mxCell>
                <mxCell id="29" style="html=1;entryX=0;entryY=0.5;entryDx=0;entryDy=0;fontSize=4;strokeWidth=1;endSize=1;startSize=1;" parent="1" edge="1">
                    <mxGeometry relative="1" as="geometry">
                        <mxPoint x="259.9999999999999" y="124.86" as="sourcePoint"/>
                        <mxPoint x="275" y="124.86" as="targetPoint"/>
                    </mxGeometry>
                </mxCell>
                <mxCell id="38" style="edgeStyle=orthogonalEdgeStyle;html=1;entryX=1;entryY=0.5;entryDx=0;entryDy=0;fontSize=9;startSize=1;endSize=1;strokeWidth=1;" parent="1" source="30" target="8" edge="1">
                    <mxGeometry relative="1" as="geometry">
                        <Array as="points">
                            <mxPoint x="390" y="160"/>
                            <mxPoint x="360" y="160"/>
                        </Array>
                    </mxGeometry>
                </mxCell>
                <mxCell id="39" style="html=1;fontSize=9;startSize=1;endSize=1;strokeWidth=1;entryX=0.833;entryY=0;entryDx=0;entryDy=0;entryPerimeter=0;edgeStyle=orthogonalEdgeStyle;elbow=vertical;" parent="1" source="30" target="12" edge="1">
                    <mxGeometry relative="1" as="geometry">
                        <mxPoint x="420" y="280" as="targetPoint"/>
                        <Array as="points">
                            <mxPoint x="390" y="160"/>
                            <mxPoint x="420" y="160"/>
                        </Array>
                    </mxGeometry>
                </mxCell>
                <mxCell id="40" value="&lt;font style=&quot;font-size: 6px&quot;&gt;Sense&lt;/font&gt;" style="edgeLabel;html=1;align=center;verticalAlign=middle;resizable=0;points=[];fontSize=9;" parent="39" vertex="1" connectable="0">
                    <mxGeometry x="0.3588" relative="1" as="geometry">
                        <mxPoint as="offset"/>
                    </mxGeometry>
                </mxCell>
                <mxCell id="30" value="BATTERY PROTECTED&amp;nbsp; SOURCE" style="rounded=0;whiteSpace=wrap;html=1;shadow=0;glass=0;sketch=0;fontSize=4;strokeWidth=1;" parent="1" vertex="1">
                    <mxGeometry x="360" y="85" width="60" height="30" as="geometry"/>
                </mxCell>
                <mxCell id="37" value="Redudndant reverse polarity protection based on LM5050 and external N-MOS" style="text;html=1;strokeColor=none;fillColor=none;align=center;verticalAlign=middle;whiteSpace=wrap;rounded=0;shadow=0;glass=0;sketch=0;fontSize=9;fontStyle=2" parent="1" vertex="1">
                    <mxGeometry x="60" y="20" width="180" height="30" as="geometry"/>
                </mxCell>
                <mxCell id="41" value="ADC" style="text;html=1;strokeColor=none;fillColor=none;align=center;verticalAlign=middle;whiteSpace=wrap;rounded=0;shadow=0;glass=0;sketch=0;fontSize=6;" parent="1" vertex="1">
                    <mxGeometry x="390" y="360" width="60" height="30" as="geometry"/>
                </mxCell>
                <mxCell id="43" style="html=1;fontSize=15;startSize=1;endSize=1;strokeWidth=1;elbow=vertical;entryX=0.005;entryY=0.232;entryDx=0;entryDy=0;entryPerimeter=0;startArrow=classic;startFill=1;" parent="1" source="42" target="2" edge="1">
                    <mxGeometry relative="1" as="geometry"/>
                </mxCell>
                <mxCell id="48" value="SPI" style="edgeLabel;html=1;align=center;verticalAlign=middle;resizable=0;points=[];fontSize=6;" parent="43" vertex="1" connectable="0">
                    <mxGeometry x="0.2467" y="-1" relative="1" as="geometry">
                        <mxPoint x="-3" y="-1" as="offset"/>
                    </mxGeometry>
                </mxCell>
                <mxCell id="42" value="MT25QL128&amp;nbsp;&lt;br&gt;NOR FLASH&lt;br&gt;&lt;h1 class=&quot;panel-title&quot;&gt;&lt;/h1&gt;" style="rounded=1;whiteSpace=wrap;html=1;shadow=0;glass=0;sketch=0;fontSize=6;strokeWidth=1;" parent="1" vertex="1">
                    <mxGeometry x="195" y="380" width="80" height="30" as="geometry"/>
                </mxCell>
                <mxCell id="46" style="html=1;fontSize=15;startSize=1;endSize=1;strokeWidth=1;elbow=vertical;entryX=0;entryY=0.5;entryDx=0;entryDy=0;" parent="1" source="44" target="2" edge="1">
                    <mxGeometry relative="1" as="geometry">
                        <mxPoint x="300" y="460" as="targetPoint"/>
                    </mxGeometry>
                </mxCell>
                <mxCell id="47" value="&lt;font style=&quot;font-size: 6px;&quot;&gt;I2C&lt;/font&gt;" style="edgeLabel;html=1;align=center;verticalAlign=middle;resizable=0;points=[];fontSize=6;horizontal=1;" parent="46" vertex="1" connectable="0">
                    <mxGeometry x="0.2541" y="-1" relative="1" as="geometry">
                        <mxPoint x="-3" as="offset"/>
                    </mxGeometry>
                </mxCell>
                <mxCell id="44" value="SAFETY IMU&lt;br&gt;&lt;h1 class=&quot;panel-title&quot;&gt;&lt;/h1&gt;" style="rounded=1;whiteSpace=wrap;html=1;shadow=0;glass=0;sketch=0;fontSize=6;strokeWidth=1;" parent="1" vertex="1">
                    <mxGeometry x="195" y="420" width="80" height="30" as="geometry"/>
                </mxCell>
                <mxCell id="52" style="html=1;entryX=0;entryY=0.5;entryDx=0;entryDy=0;fontSize=6;startSize=1;endSize=1;strokeWidth=1;elbow=vertical;exitX=1.021;exitY=0.32;exitDx=0;exitDy=0;exitPerimeter=0;" parent="1" source="49" target="50" edge="1">
                    <mxGeometry relative="1" as="geometry"/>
                </mxCell>
                <mxCell id="67" style="edgeStyle=orthogonalEdgeStyle;html=1;entryX=0;entryY=0.5;entryDx=0;entryDy=0;fontSize=8;startArrow=classic;startFill=1;endArrow=none;endFill=0;startSize=1;endSize=1;strokeWidth=1;elbow=vertical;" parent="1" source="49" target="64" edge="1">
                    <mxGeometry relative="1" as="geometry"/>
                </mxCell>
                <mxCell id="49" value="&lt;font style=&quot;font-size: 8px&quot;&gt;VNF1048F&lt;/font&gt;" style="rounded=1;whiteSpace=wrap;html=1;shadow=0;glass=0;sketch=0;fontSize=6;strokeWidth=1;" parent="1" vertex="1">
                    <mxGeometry x="590" y="167.5" width="80" height="30" as="geometry"/>
                </mxCell>
                <mxCell id="50" value="&lt;font style=&quot;font-size: 6px&quot;&gt;N-MOS&lt;/font&gt;" style="rounded=0;whiteSpace=wrap;html=1;shadow=0;glass=0;sketch=0;fontSize=8;strokeWidth=1;" parent="1" vertex="1">
                    <mxGeometry x="690" y="167.5" width="60" height="20" as="geometry"/>
                </mxCell>
                <mxCell id="62" style="edgeStyle=orthogonalEdgeStyle;html=1;entryX=0.5;entryY=1;entryDx=0;entryDy=0;fontSize=8;startArrow=none;startFill=0;endArrow=classicThin;endFill=1;startSize=1;endSize=1;strokeWidth=1;elbow=vertical;" parent="1" source="54" target="49" edge="1">
                    <mxGeometry relative="1" as="geometry"/>
                </mxCell>
                <mxCell id="54" value="NTC" style="rounded=0;whiteSpace=wrap;html=1;shadow=0;glass=0;sketch=0;fontSize=6;strokeWidth=1;" parent="1" vertex="1">
                    <mxGeometry x="680" y="205" width="40" height="15" as="geometry"/>
                </mxCell>
                <mxCell id="64" value="SHUNT" style="rounded=0;whiteSpace=wrap;html=1;shadow=0;glass=0;sketch=0;fontSize=6;strokeWidth=1;" parent="1" vertex="1">
                    <mxGeometry x="670" y="135" width="40" height="15" as="geometry"/>
                </mxCell>
                <mxCell id="68" style="html=1;entryX=0;entryY=0.5;entryDx=0;entryDy=0;fontSize=6;startSize=1;endSize=1;strokeWidth=1;elbow=vertical;exitX=1.021;exitY=0.32;exitDx=0;exitDy=0;exitPerimeter=0;" parent="1" source="70" target="71" edge="1">
                    <mxGeometry relative="1" as="geometry"/>
                </mxCell>
                <mxCell id="69" style="edgeStyle=orthogonalEdgeStyle;html=1;entryX=0;entryY=0.5;entryDx=0;entryDy=0;fontSize=8;startArrow=classic;startFill=1;endArrow=none;endFill=0;startSize=1;endSize=1;strokeWidth=1;elbow=vertical;" parent="1" source="70" target="74" edge="1">
                    <mxGeometry relative="1" as="geometry"/>
                </mxCell>
                <mxCell id="84" style="edgeStyle=orthogonalEdgeStyle;html=1;entryX=1;entryY=0.5;entryDx=0;entryDy=0;fontSize=8;startArrow=classic;startFill=1;endArrow=none;endFill=0;startSize=1;endSize=1;strokeWidth=1;elbow=vertical;" parent="1" source="70" target="2" edge="1">
                    <mxGeometry relative="1" as="geometry">
                        <Array as="points">
                            <mxPoint x="560" y="278"/>
                            <mxPoint x="560" y="435"/>
                        </Array>
                    </mxGeometry>
                </mxCell>
                <mxCell id="70" value="&lt;font style=&quot;font-size: 8px&quot;&gt;VNF1048F&lt;/font&gt;" style="rounded=1;whiteSpace=wrap;html=1;shadow=0;glass=0;sketch=0;fontSize=6;strokeWidth=1;" parent="1" vertex="1">
                    <mxGeometry x="600" y="262.5" width="80" height="30" as="geometry"/>
                </mxCell>
                <mxCell id="71" value="&lt;font style=&quot;font-size: 6px&quot;&gt;N-MOS&lt;/font&gt;" style="rounded=0;whiteSpace=wrap;html=1;shadow=0;glass=0;sketch=0;fontSize=8;strokeWidth=1;" parent="1" vertex="1">
                    <mxGeometry x="700" y="262.5" width="60" height="20" as="geometry"/>
                </mxCell>
                <mxCell id="72" style="edgeStyle=orthogonalEdgeStyle;html=1;entryX=0.5;entryY=1;entryDx=0;entryDy=0;fontSize=8;startArrow=none;startFill=0;endArrow=classicThin;endFill=1;startSize=1;endSize=1;strokeWidth=1;elbow=vertical;" parent="1" source="73" target="70" edge="1">
                    <mxGeometry relative="1" as="geometry"/>
                </mxCell>
                <mxCell id="73" value="NTC" style="rounded=0;whiteSpace=wrap;html=1;shadow=0;glass=0;sketch=0;fontSize=6;strokeWidth=1;" parent="1" vertex="1">
                    <mxGeometry x="690" y="300" width="40" height="15" as="geometry"/>
                </mxCell>
                <mxCell id="74" value="SHUNT" style="rounded=0;whiteSpace=wrap;html=1;shadow=0;glass=0;sketch=0;fontSize=6;strokeWidth=1;" parent="1" vertex="1">
                    <mxGeometry x="680" y="230" width="40" height="15" as="geometry"/>
                </mxCell>
                <mxCell id="76" style="html=1;entryX=0;entryY=0.5;entryDx=0;entryDy=0;fontSize=6;startSize=1;endSize=1;strokeWidth=1;elbow=vertical;exitX=1.021;exitY=0.32;exitDx=0;exitDy=0;exitPerimeter=0;" parent="1" source="78" target="79" edge="1">
                    <mxGeometry relative="1" as="geometry"/>
                </mxCell>
                <mxCell id="77" style="edgeStyle=orthogonalEdgeStyle;html=1;entryX=0;entryY=0.5;entryDx=0;entryDy=0;fontSize=8;startArrow=classic;startFill=1;endArrow=none;endFill=0;startSize=1;endSize=1;strokeWidth=1;elbow=vertical;" parent="1" source="78" target="82" edge="1">
                    <mxGeometry relative="1" as="geometry"/>
                </mxCell>
                <mxCell id="83" style="edgeStyle=orthogonalEdgeStyle;html=1;entryX=1;entryY=0.5;entryDx=0;entryDy=0;fontSize=8;startArrow=classic;startFill=1;endArrow=none;endFill=0;startSize=1;endSize=1;strokeWidth=1;elbow=vertical;" parent="1" source="78" target="2" edge="1">
                    <mxGeometry relative="1" as="geometry">
                        <Array as="points">
                            <mxPoint x="560" y="373"/>
                            <mxPoint x="560" y="435"/>
                        </Array>
                    </mxGeometry>
                </mxCell>
                <mxCell id="78" value="&lt;font style=&quot;font-size: 8px&quot;&gt;VNF1048F&lt;/font&gt;" style="rounded=1;whiteSpace=wrap;html=1;shadow=0;glass=0;sketch=0;fontSize=6;strokeWidth=1;" parent="1" vertex="1">
                    <mxGeometry x="610" y="357.5" width="80" height="30" as="geometry"/>
                </mxCell>
                <mxCell id="79" value="&lt;font style=&quot;font-size: 6px&quot;&gt;N-MOS&lt;/font&gt;" style="rounded=0;whiteSpace=wrap;html=1;shadow=0;glass=0;sketch=0;fontSize=8;strokeWidth=1;" parent="1" vertex="1">
                    <mxGeometry x="710" y="357.5" width="60" height="20" as="geometry"/>
                </mxCell>
                <mxCell id="80" style="edgeStyle=orthogonalEdgeStyle;html=1;entryX=0.5;entryY=1;entryDx=0;entryDy=0;fontSize=8;startArrow=none;startFill=0;endArrow=classicThin;endFill=1;startSize=1;endSize=1;strokeWidth=1;elbow=vertical;" parent="1" source="81" target="78" edge="1">
                    <mxGeometry relative="1" as="geometry"/>
                </mxCell>
                <mxCell id="81" value="NTC" style="rounded=0;whiteSpace=wrap;html=1;shadow=0;glass=0;sketch=0;fontSize=6;strokeWidth=1;" parent="1" vertex="1">
                    <mxGeometry x="700" y="395" width="40" height="15" as="geometry"/>
                </mxCell>
                <mxCell id="82" value="SHUNT" style="rounded=0;whiteSpace=wrap;html=1;shadow=0;glass=0;sketch=0;fontSize=6;strokeWidth=1;" parent="1" vertex="1">
                    <mxGeometry x="690" y="325" width="40" height="15" as="geometry"/>
                </mxCell>
                <mxCell id="89" value="&lt;span style=&quot;font-size: 22px&quot;&gt;&lt;b&gt;... x10&lt;br&gt;&lt;br&gt;&lt;/b&gt;&lt;/span&gt;" style="text;html=1;strokeColor=none;fillColor=none;align=center;verticalAlign=middle;whiteSpace=wrap;rounded=0;shadow=0;glass=0;dashed=1;sketch=0;fontSize=8;" parent="1" vertex="1">
                    <mxGeometry x="642.5" y="430" width="60" height="30" as="geometry"/>
                </mxCell>
                <mxCell id="90" value="HIGH SIDE" style="text;html=1;strokeColor=none;fillColor=none;align=center;verticalAlign=middle;whiteSpace=wrap;rounded=0;shadow=0;glass=0;dashed=1;sketch=0;fontSize=16;fontStyle=2" parent="1" vertex="1">
                    <mxGeometry x="535" y="90" width="160" height="30" as="geometry"/>
                </mxCell>
                <mxCell id="93" style="html=1;entryX=0.75;entryY=1;entryDx=0;entryDy=0;fontSize=16;startArrow=classic;startFill=1;endArrow=classic;endFill=1;startSize=1;endSize=1;strokeWidth=1;elbow=vertical;" parent="1" source="92" target="2" edge="1">
                    <mxGeometry relative="1" as="geometry"/>
                </mxCell>
                <mxCell id="94" value="&lt;font style=&quot;font-size: 8px;&quot;&gt;SPI&lt;/font&gt;" style="edgeLabel;html=1;align=center;verticalAlign=middle;resizable=0;points=[];fontSize=8;horizontal=0;" parent="93" vertex="1" connectable="0">
                    <mxGeometry x="-0.2081" y="1" relative="1" as="geometry">
                        <mxPoint as="offset"/>
                    </mxGeometry>
                </mxCell>
                <mxCell id="92" value="&lt;font style=&quot;font-size: 8px&quot;&gt;TLE9104SH&lt;br&gt;LOW-SIDE 4 OUTPUT&lt;br&gt;&lt;/font&gt;" style="rounded=1;whiteSpace=wrap;html=1;shadow=0;glass=0;sketch=0;fontSize=6;strokeWidth=1;" parent="1" vertex="1">
                    <mxGeometry x="430" y="580" width="100" height="30" as="geometry"/>
                </mxCell>
                <mxCell id="96" value="" style="rounded=1;whiteSpace=wrap;html=1;shadow=0;glass=0;sketch=0;fontSize=8;strokeWidth=1;fillColor=none;dashed=1;strokeColor=#007FFF;perimeterSpacing=0;arcSize=5;" parent="1" vertex="1">
                    <mxGeometry x="40" y="17.5" width="400" height="132.5" as="geometry"/>
                </mxCell>
                <mxCell id="101" style="edgeStyle=orthogonalEdgeStyle;html=1;entryX=0.239;entryY=1.012;entryDx=0;entryDy=0;entryPerimeter=0;fontSize=8;startArrow=classic;startFill=1;endArrow=classic;endFill=1;startSize=1;endSize=1;strokeWidth=1;elbow=vertical;" parent="1" source="98" target="2" edge="1">
                    <mxGeometry relative="1" as="geometry">
                        <Array as="points">
                            <mxPoint x="343" y="525"/>
                            <mxPoint x="368" y="525"/>
                        </Array>
                    </mxGeometry>
                </mxCell>
                <mxCell id="108" style="edgeStyle=orthogonalEdgeStyle;html=1;fontSize=5;startArrow=classic;startFill=1;endArrow=classic;endFill=1;startSize=1;endSize=1;strokeWidth=1;elbow=vertical;exitX=0.226;exitY=1.024;exitDx=0;exitDy=0;exitPerimeter=0;dashed=1;" parent="1" source="98" edge="1">
                    <mxGeometry relative="1" as="geometry">
                        <mxPoint x="322" y="650" as="targetPoint"/>
                    </mxGeometry>
                </mxCell>
                <mxCell id="110" value="CAN1" style="edgeLabel;html=1;align=center;verticalAlign=middle;resizable=0;points=[];fontSize=5;horizontal=0;" parent="108" vertex="1" connectable="0">
                    <mxGeometry x="-0.0821" y="-1" relative="1" as="geometry">
                        <mxPoint as="offset"/>
                    </mxGeometry>
                </mxCell>
                <mxCell id="98" value="&lt;font style=&quot;font-size: 8px&quot;&gt;MCP2561&lt;br&gt;&lt;/font&gt;" style="rounded=1;whiteSpace=wrap;html=1;shadow=0;glass=0;sketch=0;fontSize=6;strokeWidth=1;" parent="1" vertex="1">
                    <mxGeometry x="305" y="540" width="75" height="20" as="geometry"/>
                </mxCell>
                <mxCell id="102" style="edgeStyle=orthogonalEdgeStyle;html=1;entryX=0.301;entryY=1.01;entryDx=0;entryDy=0;entryPerimeter=0;fontSize=8;startArrow=classic;startFill=1;endArrow=classic;endFill=1;startSize=1;endSize=1;strokeWidth=1;elbow=vertical;exitX=0.75;exitY=0;exitDx=0;exitDy=0;" parent="1" source="99" target="2" edge="1">
                    <mxGeometry relative="1" as="geometry">
                        <Array as="points">
                            <mxPoint x="396" y="530"/>
                            <mxPoint x="381" y="530"/>
                        </Array>
                    </mxGeometry>
                </mxCell>
                <mxCell id="99" value="&lt;font style=&quot;font-size: 8px&quot;&gt;MCP2561&lt;br&gt;&lt;/font&gt;" style="rounded=1;whiteSpace=wrap;html=1;shadow=0;glass=0;sketch=0;fontSize=6;strokeWidth=1;" parent="1" vertex="1">
                    <mxGeometry x="340" y="570" width="75" height="20" as="geometry"/>
                </mxCell>
                <mxCell id="104" value="&lt;font style=&quot;font-size: 5px&quot;&gt;Double CAN-BUS with software selectable termination&lt;/font&gt;" style="text;html=1;strokeColor=none;fillColor=none;align=center;verticalAlign=middle;whiteSpace=wrap;rounded=0;shadow=0;glass=0;dashed=1;sketch=0;fontSize=4;fontStyle=2;horizontal=0;" parent="1" vertex="1">
                    <mxGeometry x="280" y="520" width="20" height="90" as="geometry"/>
                </mxCell>
                <mxCell id="111" style="edgeStyle=orthogonalEdgeStyle;html=1;fontSize=5;startArrow=classic;startFill=1;endArrow=classic;endFill=1;startSize=1;endSize=1;strokeWidth=1;elbow=vertical;exitX=0.226;exitY=1.024;exitDx=0;exitDy=0;exitPerimeter=0;dashed=1;" parent="1" edge="1">
                    <mxGeometry relative="1" as="geometry">
                        <mxPoint x="377.40999999999997" y="679.52" as="targetPoint"/>
                        <mxPoint x="377.36" y="590" as="sourcePoint"/>
                    </mxGeometry>
                </mxCell>
                <mxCell id="112" value="CAN2" style="edgeLabel;html=1;align=center;verticalAlign=middle;resizable=0;points=[];fontSize=5;horizontal=0;" parent="111" vertex="1" connectable="0">
                    <mxGeometry x="-0.0821" y="-1" relative="1" as="geometry">
                        <mxPoint as="offset"/>
                    </mxGeometry>
                </mxCell>
                <mxCell id="114" style="edgeStyle=orthogonalEdgeStyle;html=1;entryX=0.002;entryY=0.834;entryDx=0;entryDy=0;entryPerimeter=0;fontSize=5;startArrow=classic;startFill=1;endArrow=classic;endFill=1;startSize=1;endSize=1;strokeWidth=1;elbow=vertical;" parent="1" source="113" target="2" edge="1">
                    <mxGeometry relative="1" as="geometry"/>
                </mxCell>
                <mxCell id="115" value="SPI" style="edgeLabel;html=1;align=center;verticalAlign=middle;resizable=0;points=[];fontSize=6;" parent="114" vertex="1" connectable="0">
                    <mxGeometry x="-0.1762" relative="1" as="geometry">
                        <mxPoint x="6" as="offset"/>
                    </mxGeometry>
                </mxCell>
                <mxCell id="113" value="2x TMP126NDCKR&lt;br&gt;&lt;h1 class=&quot;panel-title&quot;&gt;&lt;/h1&gt;" style="rounded=1;whiteSpace=wrap;html=1;shadow=0;glass=0;sketch=0;fontSize=6;strokeWidth=1;" parent="1" vertex="1">
                    <mxGeometry x="195" y="470" width="80" height="30" as="geometry"/>
                </mxCell>
                <mxCell id="118" value="16 x ARGB" style="rounded=1;whiteSpace=wrap;html=1;shadow=0;glass=0;sketch=0;fontSize=6;strokeWidth=1;horizontal=0;" parent="1" vertex="1">
                    <mxGeometry x="440" y="250" width="20" height="70" as="geometry"/>
                </mxCell>
                <mxCell id="120" style="edgeStyle=orthogonalEdgeStyle;html=1;entryX=0.5;entryY=1;entryDx=0;entryDy=0;fontSize=6;startArrow=classic;startFill=1;endArrow=none;endFill=0;startSize=1;endSize=1;strokeWidth=1;elbow=vertical;exitX=1;exitY=0;exitDx=0;exitDy=0;" parent="1" target="121" edge="1">
                    <mxGeometry relative="1" as="geometry">
                        <mxPoint x="490" y="360" as="sourcePoint"/>
                    </mxGeometry>
                </mxCell>
                <mxCell id="121" value="BUZZER" style="rounded=1;whiteSpace=wrap;html=1;shadow=0;glass=0;sketch=0;fontSize=6;strokeWidth=1;horizontal=0;" parent="1" vertex="1">
                    <mxGeometry x="480" y="250" width="20" height="70" as="geometry"/>
                </mxCell>
            </root>
        </mxGraphModel>
    </diagram>
</mxfile>